# xmcd CD database file
#
# Track frame offsets:
#	150
#	19587
#	38132
#	70309
#	85106
#	103304
#	138697
#	157713
#	174475
#	196043
#	230145
#	244256
#	269256
#
# Disc length: 4003 seconds
#
# Revision: 2
# Processed by: cddbd v1.5.1PL0 Copyright (c) Steve Scherf et al.
# Submitted via: CDex 1.51
#
DISCID=ac0fa10d
DTITLE=Leslie West - Guitarded
DYEAR=2004
DGENRE=Rock
TTITLE0=Allergic
TTITLE1=Cross Cut Saw Blues
TTITLE2=Stormy Monday
TTITLE3=Honky Tonk Woman
TTITLE4=Hang Me Out To Dry
TTITLE5=If Heartaches Were Nickels
TTITLE6=The Cell
TTITLE7=Dragon Lady
TTITLE8=Goin' Down
TTITLE9=Third Degree
TTITLE10=Born To Be Wild
TTITLE11=Old Brown Shoe
TTITLE12=Theme From An Imaginary Western
EXTD=VP343CD YEAR: 2004
EXTT0=
EXTT1=
EXTT2=
EXTT3=
EXTT4=
EXTT5=
EXTT6=
EXTT7=
EXTT8=
EXTT9=
EXTT10=
EXTT11=
EXTT12=
PLAYORDER=
